<svg xmlns="http://www.w3.org/2000/svg" height="48" viewBox="0 -960 960 960" width="48"><path d="M580.124-364q31.401 0 54.139-21.907Q657-407.815 657-440.089q0-32.273-22.619-54.592Q611.763-517 580-517q-14.36 0-28.284 5.275T528-496l-111-55q1-2 1-4.5v-9q0-2.5-1-4.5l112-56q10.208 11.1 23.319 16.05Q565.431-604 580-604q31.763 0 54.381-21.907Q657-647.815 657-680.089q0-32.273-22.645-54.592Q611.711-757 579.911-757q-31.386 0-53.649 22.062Q504-712.875 504-681v4.5q0 2.5 1 4.5l-113.254 56q-10.954-10.1-24.065-15.55Q354.569-637 340-637q-32.237 0-54.119 22.645Q264-591.711 264-559.911q0 32.273 21.881 54.092Q307.763-484 340-484q14.569 0 27.681-4.95Q380.792-493.9 392-505l113 57q-1 2-1 4.5v4.5q0 31.875 22.361 53.438Q548.723-364 580.124-364ZM64-59v-770q0-28.725 22.138-50.862Q108.275-902 137-902h686q28.725 0 50.862 22.138Q896-857.725 896-829v524q0 28.725-22.138 50.863Q851.725-232 823-232H237L64-59Zm142-246h617v-524H137v599l69-75Zm-69 0v-524 524Z"/></svg>